:SAMPLES-PER-SECOND 30
:FRAME-RANGE 1-3535
:FULLY-SPECIFIED
:DEGREES
332
root  -59.4681 38.2626 -5.92018 -173.847 29.8293 179.222
RightUpLeg  -32.2366 -22.6794 6.80145
RightLeg  36.6545 -11.0924 -8.9821
RightFoot  -9.91426 -0.16638 7.92992
RightToes  1.22775e-009 1.2921e-014 -6.02303e-014
Spine  6.70116 -2.62326 -5.69031
Spine1  4.44439 -3.78452 3.39997
HEad  3.76436 -1.59244 -3.35491
LeftShoulder1  1.78263 -2.00514 -26.2166
LeftArm  6.71769 -15.0587 -45.5818
LeftForeArm  20.0119 -0.759908 -17.3351
LeftHand  -0.0192059 -1.97122 0.473586
RightShoulder  6.39863 8.34155 47.3138
RightArm  -14.9044 -1.36311 10.8804
RightForeArm  6.72875 1.32288 13.3083
RightHand  0.0997029 3.87328 0.984998
LeftUpLeg  3.10729 12.1269 -0.662914
LeftLeg  15.0297 17.1159 -0.401584
LeftFoot  -21.2049 -0.838343 -11.1573
LeftToes  2.52163e-011 5.65494e-011 -1.09494e-012
333
root  -59.6842 38.2689 -7.08567 -173.397 28.1056 179.381
RightUpLeg  -31.6987 -21.741 12.1279
RightLeg  25.3929 -10.141 -5.41869
RightFoot  -9.49228 -0.238122 10.7168
RightToes  1.22775e-009 1.2921e-014 -6.02303e-014
Spine  6.25395 -2.75443 -5.21144
Spine1  4.62977 -3.65579 2.87513
HEad  3.83839 -1.51503 -2.40997
LeftShoulder1  1.8032 -1.95757 -26.898
LeftArm  -16.2859 -14.0873 -37.0217
LeftForeArm  21.6748 7.6979 -15.1919
LeftHand  -0.0652082 0.578534 1.51511
RightShoulder  7.045 9.40564 47.8011
RightArm  -7.91433 -0.444 12.6866
RightForeArm  10.6944 5.25815 13.5036
RightHand  0.0599772 4.56793 0.40906
LeftUpLeg  5.1756 10.0979 -1.52912
LeftLeg  12.5458 17.648 -1.00473
LeftFoot  -20.4199 -0.794878 -11.5189
LeftToes  2.52163e-011 5.65494e-011 -1.09494e-012
334
root  -59.8466 38.1659 -8.36308 -173.582 25.2851 179.177
RightUpLeg  -29.3175 -18.8856 14.0973
RightLeg  13.8683 -12.5798 -2.73238
RightFoot  -8.43231 -0.31588 10.1512
RightToes  1.22775e-009 1.2921e-014 -6.02303e-014
Spine  6.23735 -3.14959 -4.78498
Spine1  4.73892 -3.90467 2.51244
HEad  3.44857 -2.08161 -1.98119
LeftShoulder1  1.81869 -1.96055 -27.1723
LeftArm  -24.4962 -12.1746 -29.8841
LeftForeArm  9.186 8.11268 -13.6332
LeftHand  -0.0291221 3.80842 0.656578
RightShoulder  7.34614 10.1863 46.9833
RightArm  8.79242 -0.543493 15.6193
RightForeArm  8.9585 12.87 11.3635
RightHand  -0.0322298 5.15646 -0.662781
LeftUpLeg  7.77613 9.48456 -2.145
LeftLeg  10.7029 15.7071 -1.40445
LeftFoot  -19.9098 -0.74499 -11.5025
LeftToes  2.52163e-011 5.65494e-011 -1.09494e-012
335
root  -59.9677 38.0164 -9.78833 -174.322 21.4118 178.506
RightUpLeg  -26.8486 -5.42856 7.90974
RightLeg  7.91293 -22.7835 1.42784
RightFoot  -5.93878 -0.264763 4.75144
RightToes  1.22775e-009 1.2921e-014 -6.02303e-014
Spine  6.3567 -3.52521 -4.33489
Spine1  4.82928 -4.3615 2.58562
HEad  3.62608 -3.56312 -2.14176
LeftShoulder1  1.79917 -1.91289 -27.1021
LeftArm  -25.3646 -10.7672 -24.2054
LeftForeArm  0.627511 8.05642 -13.6612
LeftHand  -0.0341911 5.60665 -1.22191
RightShoulder  7.04249 9.93617 45.8514
RightArm  27.2305 -1.55735 17.912
RightForeArm  1.37394 21.9592 5.3798
RightHand  -0.0191209 6.11241 -0.527633
LeftUpLeg  11.1764 8.69142 -2.84264
LeftLeg  8.70143 13.1979 -1.59847
LeftFoot  -19.1919 -0.696299 -11.7858
LeftToes  2.52163e-011 5.65494e-011 -1.09494e-012
336
root  -60.065 37.7976 -11.3781 -174.926 17.5254 178.335
RightUpLeg  -28.5503 -2.80886 8.7135
RightLeg  11.6774 -12.1096 -0.492765
RightFoot  0.277333 0.491913 -4.80991
RightToes  1.22775e-009 1.2921e-014 -6.02303e-014
Spine  6.43116 -3.31168 -2.5204
Spine1  4.9604 -4.30764 2.5951
HEad  3.9945 -6.31791 -2.79265
LeftShoulder1  1.73197 -1.75841 -26.7887
LeftArm  -22.7173 -9.85543 -20.4744
LeftForeArm  2.29504 8.19983 -14.7991
LeftHand  -0.00217701 4.47123 -3.17781
RightShoulder  6.54653 9.28483 44.7571
RightArm  27.9858 -2.60867 18.0962
RightForeArm  6.26998 28.5956 5.85588
RightHand  0.115214 6.11137 0.825665
LeftUpLeg  14.4905 8.74932 -2.09767
LeftLeg  8.13739 9.38841 -2.16642
LeftFoot  -18.9399 -0.719035 -12.4911
LeftToes  2.52163e-011 5.65494e-011 -1.09494e-012
337
root  -60.1315 37.4759 -13.0361 -175.823 14.3904 178.83
RightUpLeg  -31.1977 3.47128 7.3446
RightLeg  23.3471 -16.1624 -7.70395
RightFoot  -0.767762 0.642992 -6.99004
RightToes  1.22775e-009 1.2921e-014 -6.02303e-014
Spine  7.32724 -2.69225 0.440631
Spine1  4.1652 -3.33954 1.89189
HEad  3.95415 -9.55629 -3.67715
LeftShoulder1  1.66688 -1.51655 -27.0849
LeftArm  -15.8261 -9.14301 -17.8285
LeftForeArm  5.04078 6.70735 -16.4042
LeftHand  0.0922185 2.17385 -3.84372
RightShoulder  6.46163 9.15224 44.6351
RightArm  29.2578 -3.07145 17.0271
RightForeArm  7.75946 33.2573 6.94357
RightHand  0.204883 5.77946 1.79924
LeftUpLeg  16.6832 11.9868 1.19434
LeftLeg  12.1083 2.20247 -3.00289
LeftFoot  -19.2599 -0.841331 -13.7623
LeftToes  2.52163e-011 5.65494e-011 -1.09494e-012
338
root  -60.2328 37.2933 -14.6352 -177.001 11.2779 179.174
RightUpLeg  -31.0531 3.41796 6.49197
RightLeg  30.9464 -18.123 -11.5958
RightFoot  -3.51958 0.471633 -7.23116
RightToes  1.22775e-009 1.2921e-014 -6.02303e-014
Spine  7.73812 -2.53339 3.55255
Spine1  4.51956 -2.63404 0.746908
HEad  3.69092 -12.4105 -4.13347
LeftShoulder1  1.57154 -1.21764 -27.1671
LeftArm  -9.8413 -7.01293 -16.7766
LeftForeArm  8.12387 -0.0973848 -16.7548
LeftHand  0.150033 0.27741 -3.47511
RightShoulder  7.18782 10.3891 45.248
RightArm  31.835 -2.2581 15.984
RightForeArm  7.84798 33.4579 6.99178
RightHand  0.239086 5.96598 2.10798
LeftUpLeg  17.4297 19.879 6.1194
LeftLeg  19.7661 -8.59669 -3.23996
LeftFoot  -16.9904 -0.735755 -16.8602
LeftToes  2.52163e-011 5.65494e-011 -1.09494e-012
339
root  -60.3745 37.3108 -16.104 -177.032 8.61455 179.194
RightUpLeg  -30.2578 0.257072 6.07171
RightLeg  34.3716 -17.3661 -12.6128
RightFoot  -7.10088 0.181461 -6.18654
RightToes  1.22775e-009 1.2921e-014 -6.02303e-014
Spine  7.69007 -2.12081 6.29537
Spine1  4.53622 -1.92649 0.601857
HEad  5.37412 -14.982 -4.75134
LeftShoulder1  1.52028 -1.01567 -27.5287
LeftArm  -0.572548 -4.13662 -16.7419
LeftForeArm  3.92124 -8.17413 -15.1707
LeftHand  0.130835 -0.683214 -2.44633
RightShoulder  7.87674 11.7381 45.1843
RightArm  36.4601 -0.930502 15.9523
RightForeArm  6.05182 30.5027 6.33283
RightHand  0.257183 6.14553 2.24682
LeftUpLeg  13.0269 17.1541 6.00964
LeftLeg  29.4124 -5.86457 -3.22481
LeftFoot  -8.97399 0.510901 -21.9033
LeftToes  2.52163e-011 5.65494e-011 -1.09494e-012
340
root  -60.5005 37.2697 -17.3382 -176.292 5.81589 -179.773
RightUpLeg  -29.7704 -2.41925 6.5407
RightLeg  36.5268 -16.7827 -13.1773
RightFoot  -9.97098 -0.0245012 -3.58401
RightToes  1.22775e-009 1.2921e-014 -6.02303e-014
Spine  8.42102 -1.73635 9.7439
Spine1  2.93374 -0.929562 0.616204
HEad  6.45047 -17.6153 -5.39182
LeftShoulder1  1.43823 -0.758387 -27.6345
LeftArm  8.3277 -1.17148 -18.2895
LeftForeArm  -3.67375 -15.5304 -11.1429
LeftHand  0.127589 -1.31706 -2.09531
RightShoulder  8.16032 12.2986 45.1448
RightArm  37.316 0.48101 16.6909
RightForeArm  6.66334 25.2419 5.06184
RightHand  0.445168 7.37718 3.6714
LeftUpLeg  4.37574 14.3076 6.53588
LeftLeg  42.8093 -2.75604 -2.34142
LeftFoot  3.61631 2.77013 -21.0604
LeftToes  2.52163e-011 5.65494e-011 -1.09494e-012
341
root  -60.6173 37.1679 -18.4325 -176.206 3.59373 -178.251
RightUpLeg  -28.5708 -3.97969 7.53071
RightLeg  38.284 -16.6734 -13.9141
RightFoot  -12.458 -0.0946521 -1.06393
RightToes  1.22775e-009 1.2921e-014 -6.02303e-014
Spine  9.59201 -1.45208 13.2403
Spine1  2.39047 0.111056 0.657743
HEad  5.92416 -19.8997 -4.45192
LeftShoulder1  1.35798 -0.500028 -27.8092
LeftArm  12.9819 2.17753 -20.1992
LeftForeArm  -10.2067 -22.1675 -5.97531
LeftHand  0.153937 -1.97812 -2.26459
RightShoulder  8.41809 12.4356 46.2063
RightArm  34.842 2.31927 16.1766
RightForeArm  5.9788 22.3989 5.00038
RightHand  0.455449 7.31662 3.78556
LeftUpLeg  -3.86206 12.7504 7.72871
LeftLeg  54.3469 -1.08575 -1.1528
LeftFoot  15.5464 3.29798 -14.1412
LeftToes  2.52163e-011 5.65494e-011 -1.09494e-012
342
root  -60.6528 37.5355 -19.8249 -176.798 1.60532 -178.383
RightUpLeg  -24.5469 -6.41163 6.80746
RightLeg  36.5509 -16.5039 -13.0007
RightFoot  -14.0887 -0.0711848 1.00897
RightToes  1.22775e-009 1.2921e-014 -6.02303e-014
Spine  10.0311 -1.19453 13.3511
Spine1  2.3311 0.425896 1.02792
HEad  5.15155 -21.6133 -3.1077
LeftShoulder1  1.31779 -0.327766 -28.2955
LeftArm  7.09857 5.78697 -21.5682
LeftForeArm  -5.60898 -26.5447 -5.99179
LeftHand  0.169688 -2.22687 -2.40981
RightShoulder  8.7966 12.7497 47.3769
RightArm  27.7223 3.96334 15.5759
RightForeArm  6.33144 20.1478 6.47476
RightHand  0.266299 6.57513 2.23124
LeftUpLeg  -10.3107 11.7366 7.27485
LeftLeg  61.3133 -0.123774 0.332277
LeftFoot  9.29691 2.11973 -11.9211
LeftToes  2.52163e-011 5.65494e-011 -1.09494e-012
343
root  -60.6904 37.9827 -21.2755 -177.154 0.201294 -179.245
RightUpLeg  -20.2533 -8.95427 5.17516
RightLeg  33.7656 -15.6688 -11.2501
RightFoot  -15.2422 -0.0261683 2.26268
RightToes  1.22775e-009 1.2921e-014 -6.02303e-014
Spine  10.2672 -0.886579 12.4598
Spine1  1.67039 0.621091 0.984413
HEad  4.92385 -22.8993 -2.30835
LeftShoulder1  1.28904 -0.18992 -28.8104
LeftArm  5.31068 9.25654 -22.9324
LeftForeArm  -2.31847 -28.7182 -6.34254
LeftHand  0.161969 -2.53759 -2.17615
RightShoulder  9.11129 12.881 48.694
RightArm  20.6877 5.06289 14.9963
RightForeArm  6.76398 18.9318 7.32843
RightHand  0.0729681 5.76543 0.432149
LeftUpLeg  -15.8318 11.324 5.80515
LeftLeg  62.7397 -0.164299 0.258282
LeftFoot  5.28255 1.55723 -10.8548
LeftToes  2.52163e-011 5.65494e-011 -1.09494e-012
344
root  -60.7498 38.4094 -22.7737 -177.286 -0.383423 179.941
RightUpLeg  -15.786 -11.71 3.4377
RightLeg  30.171 -13.9227 -8.84339
RightFoot  -15.8952 0.0251 3.33916
RightToes  1.22775e-009 1.2921e-014 -6.02303e-014
Spine  10.2664 -0.336332 11.8009
Spine1  0.829588 1.07948 0.300742
HEad  4.88078 -23.9227 -2.19688
LeftShoulder1  1.28031 -0.115829 -29.2922
LeftArm  7.19787 12.0535 -24.571
LeftForeArm  -1.07763 -28.3387 -6.18527
LeftHand  0.162853 -2.93147 -2.05447
RightShoulder  9.07593 12.6138 49.3134
RightArm  17.416 5.53571 15.2152
RightForeArm  4.95304 19.5599 6.78464
RightHand  -0.0709335 5.21472 -1.08572
LeftUpLeg  -20.3225 11.8947 4.19132
LeftLeg  60.0243 -0.143752 0.283635
LeftFoot  1.38614 1.24745 -11.234
LeftToes  2.52163e-011 5.65494e-011 -1.09494e-012
345
root  -60.8101 38.8133 -24.2918 -177.376 -0.469467 179.202
RightUpLeg  -11.0739 -12.8195 1.39427
RightLeg  26.2263 -13.1659 -6.54058
RightFoot  -15.8453 0.069334 4.4928
RightToes  1.22775e-009 1.2921e-014 -6.02303e-014
Spine  10.0968 0.292525 10.9273
Spine1  0.115097 1.56385 -0.530946
HEad  4.84825 -24.502 -2.40958
LeftShoulder1  1.25269 0.0151966 -29.8359
LeftArm  10.958 14.5182 -26.1371
LeftForeArm  -1.89835 -26.5939 -5.81446
LeftHand  0.199535 -3.51883 -2.35456
RightShoulder  9.05618 12.5269 49.4731
RightArm  18.4218 5.50742 15.5726
RightForeArm  1.80737 21.5668 5.53231
RightHand  -0.172864 4.94992 -2.24061
LeftUpLeg  -23.3177 13.0588 2.50839
LeftLeg  53.3371 -0.289551 0.0458844
LeftFoot  -1.3053 0.970093 -10.9351
LeftToes  2.52163e-011 5.65494e-011 -1.09494e-012
346
root  -60.8666 39.1586 -25.7718 -177.317 -0.0580902 178.426
RightUpLeg  -6.6335 -12.0842 -0.655844
RightLeg  22.353 -13.6725 -4.63875
RightFoot  -15.3275 0.0824891 5.35462
RightToes  1.22775e-009 1.2921e-014 -6.02303e-014
Spine  9.90796 0.871551 9.66278
Spine1  -0.471771 1.99713 -1.56549
HEad  4.65846 -24.7485 -2.25227
LeftShoulder1  1.20971 0.178587 -30.3118
LeftArm  16.0809 16.972 -27.4587
LeftForeArm  -4.87734 -24.1562 -5.40881
LeftHand  0.271165 -4.10826 -3.04364
RightShoulder  9.18146 12.7617 49.4319
RightArm  19.5369 5.29292 15.8753
RightForeArm  1.89175 23.8777 5.00915
RightHand  -0.197734 4.78743 -2.54992
LeftUpLeg  -24.9665 14.6408 0.61401
LeftLeg  43.0533 -0.178372 0.207577
LeftFoot  -2.4025 0.895214 -11.2422
LeftToes  2.52163e-011 5.65494e-011 -1.09494e-012
